<?xml version="1.0" encoding="UTF-8" standalone="no"?>
<!-- Created with Inkscape (http://www.inkscape.org/) -->

<svg
   width="8.7666674mm"
   height="6.6500001mm"
   viewBox="0 0 8.7666674 6.6500001"
   version="1.1"
   id="svg5"
   xml:space="preserve"
   inkscape:version="1.2.1 (9c6d41e, 2022-07-14)"
   sodipodi:docname="emailIcon.svg"
   xmlns:inkscape="http://www.inkscape.org/namespaces/inkscape"
   xmlns:sodipodi="http://sodipodi.sourceforge.net/DTD/sodipodi-0.dtd"
   xmlns="http://www.w3.org/2000/svg"
   xmlns:svg="http://www.w3.org/2000/svg"><sodipodi:namedview
     id="namedview7"
     pagecolor="#ffffff"
     bordercolor="#999999"
     borderopacity="1"
     inkscape:showpageshadow="0"
     inkscape:pageopacity="0"
     inkscape:pagecheckerboard="0"
     inkscape:deskcolor="#d1d1d1"
     inkscape:document-units="mm"
     showgrid="false"
     inkscape:zoom="10.365644"
     inkscape:cx="16.545041"
     inkscape:cy="9.1166554"
     inkscape:window-width="1223"
     inkscape:window-height="783"
     inkscape:window-x="217"
     inkscape:window-y="25"
     inkscape:window-maximized="0"
     inkscape:current-layer="layer1" /><defs
     id="defs2" /><g
     inkscape:label="Layer 1"
     inkscape:groupmode="layer"
     id="layer1"
     transform="translate(-64.832768,-43.238559)"><path
       d="m 72.655685,43.388559 h -6.879167 a 0.79375,0.79375 0 0 0 -0.79375,0.79375 v 4.7625 a 0.79375,0.79375 0 0 0 0.79375,0.79375 h 6.879167 a 0.79375,0.79375 0 0 0 0.79375,-0.79375 v -4.7625 a 0.79375,0.79375 0 0 0 -0.79375,-0.79375 z m -0.1905,0.529167 -3.249083,2.320396 -3.249084,-2.320396 z m 0.455083,5.027083 a 0.26458333,0.26458333 0 0 1 -0.264583,0.264584 h -6.879167 a 0.26458333,0.26458333 0 0 1 -0.264583,-0.264584 v -4.701645 l 3.550708,2.534708 a 0.26458333,0.26458333 0 0 0 0.306917,0 l 3.550708,-2.534708 z"
       id="path1051"
       style="fill:#7886c7;fill-opacity:1;stroke:#7886c7;stroke-width:0.3;stroke-dasharray:none;stroke-opacity:1" /></g></svg>
