<?xml version="1.0" encoding="UTF-8" standalone="no"?>
<!-- Created with Inkscape (http://www.inkscape.org/) -->

<svg
   width="7.4846988mm"
   height="7.4846988mm"
   viewBox="0 0 7.4846988 7.4846988"
   version="1.1"
   id="svg5"
   xml:space="preserve"
   inkscape:version="1.2.1 (9c6d41e, 2022-07-14)"
   sodipodi:docname="icon.svg"
   xmlns:inkscape="http://www.inkscape.org/namespaces/inkscape"
   xmlns:sodipodi="http://sodipodi.sourceforge.net/DTD/sodipodi-0.dtd"
   xmlns="http://www.w3.org/2000/svg"
   xmlns:svg="http://www.w3.org/2000/svg"><sodipodi:namedview
     id="namedview7"
     pagecolor="#ffffff"
     bordercolor="#999999"
     borderopacity="1"
     inkscape:showpageshadow="0"
     inkscape:pageopacity="0"
     inkscape:pagecheckerboard="0"
     inkscape:deskcolor="#d1d1d1"
     inkscape:document-units="mm"
     showgrid="true"
     showguides="true"
     inkscape:zoom="11.800747"
     inkscape:cx="8.050338"
     inkscape:cy="12.75343"
     inkscape:window-width="1440"
     inkscape:window-height="767"
     inkscape:window-x="-1"
     inkscape:window-y="25"
     inkscape:window-maximized="0"
     inkscape:current-layer="layer1"><inkscape:grid
       type="xygrid"
       id="grid4065"
       empspacing="4"
       originx="-49.703481"
       originy="-10.54515" /><sodipodi:guide
       position="1.0965169,6.388188"
       orientation="0,-1"
       id="guide5264"
       inkscape:locked="false" /><sodipodi:guide
       position="1.0965169,6.388188"
       orientation="1,0"
       id="guide5266"
       inkscape:locked="false" /></sodipodi:namedview><defs
     id="defs2" /><g
     inkscape:label="Layer 1"
     inkscape:groupmode="layer"
     id="layer1"
     transform="translate(-49.703482,-10.54515)"><circle
       style="fill:#7886c7;fill-opacity:1;stroke-width:0.0141443;stroke-linecap:round;stroke-linejoin:round"
       id="path5262"
       cx="53.445831"
       cy="14.287499"
       r="3.7423494" /><path
       style="fill:#ffffff;fill-opacity:1;stroke:none;stroke-width:0.264583px;stroke-linecap:butt;stroke-linejoin:miter;stroke-opacity:1"
       d="m 52.122917,12.7 c 0,0 -0.264584,0 -0.264584,0.264583 0,0.264584 0,2.645834 0,2.645834 0,0 0,0.264583 0.264584,0.264583 0.264583,0 0.529166,0 0.529166,0 0,0 0.264584,0 0.264584,-0.264583 0,-0.264584 0,-0.529167 0,-0.529167 0,0 0,-0.264583 0.264583,-0.264583 0.264583,0 0.529167,0 0.529167,0 0,0 0.264583,0 0.264583,0.264583 0,0.264583 0,0.529167 0,0.529167 0,0 0,0.264583 0.264583,0.264583 0.264584,0 0.529167,0 0.529167,0 0,0 0.264583,0 0.264583,-0.264583 0,-0.264584 0,-0.529167 0,-0.529167 0,0 0,-0.264583 -0.264583,-0.264583 -0.264583,0 -0.529167,0 -0.529167,0 0,0 -0.264583,0 -0.264583,-0.264584 0,-0.264583 0,-0.529166 0,-0.529166 0,0 0,-0.264584 0.264583,-0.264584 0.264584,0 0.529167,0 0.529167,0 0,0 0.264583,0 0.264583,-0.264583 0,-0.264583 0,-0.529167 0,-0.529167 0,0 0,-0.264583 -0.264583,-0.264583 -0.264583,0 -2.645833,0 -2.645833,0 z"
       id="path4462" /></g></svg>
