<?xml version="1.0" encoding="UTF-8" standalone="no"?>
<!-- Created with Inkscape (http://www.inkscape.org/) -->

<svg
   width="69.249153mm"
   height="62.295715mm"
   viewBox="0 0 69.249153 62.295715"
   version="1.1"
   id="svg5"
   xml:space="preserve"
   inkscape:version="1.2.1 (9c6d41e, 2022-07-14)"
   sodipodi:docname="itchioLogo.svg"
   xmlns:inkscape="http://www.inkscape.org/namespaces/inkscape"
   xmlns:sodipodi="http://sodipodi.sourceforge.net/DTD/sodipodi-0.dtd"
   xmlns="http://www.w3.org/2000/svg"
   xmlns:svg="http://www.w3.org/2000/svg"><sodipodi:namedview
     id="namedview7"
     pagecolor="#ffffff"
     bordercolor="#999999"
     borderopacity="1"
     inkscape:showpageshadow="0"
     inkscape:pageopacity="0"
     inkscape:pagecheckerboard="0"
     inkscape:deskcolor="#d1d1d1"
     inkscape:document-units="mm"
     showgrid="false"
     inkscape:zoom="1.360926"
     inkscape:cx="78.622939"
     inkscape:cy="121.97577"
     inkscape:window-width="1440"
     inkscape:window-height="784"
     inkscape:window-x="0"
     inkscape:window-y="25"
     inkscape:window-maximized="1"
     inkscape:current-layer="layer1" /><defs
     id="defs2" /><g
     inkscape:label="Layer 1"
     inkscape:groupmode="layer"
     id="layer1"
     transform="translate(-45.917797,-128.67836)"><path
       d="m 54.946049,129.06362 c -3.020612,1.79352 -8.971808,8.63032 -9.028252,10.42327 v 2.96784 c 0,3.76201 3.516474,7.06851 6.709241,7.06851 3.833691,0 7.02787,-3.17725 7.028152,-6.94828 0,3.77103 3.084676,6.94828 6.918649,6.94828 3.834256,0 6.819872,-3.17725 6.819872,-6.94828 0,3.77103 3.279974,6.94828 7.113947,6.94828 h 0.06943 c 3.834256,0 7.114229,-3.17725 7.114229,-6.94828 0,3.77103 2.985899,6.94828 6.81959,6.94828 3.833973,0 6.918653,-3.17725 6.918653,-6.94828 0,3.77103 3.19474,6.94828 7.02815,6.94828 3.19276,0 6.70924,-3.30594 6.70924,-7.06851 v -2.96784 c -0.0564,-1.79323 -6.00765,-8.63032 -9.02769,-10.42327 -9.388369,-0.32963 -15.896951,-0.38664 -25.597171,-0.38523 -9.699938,8.5e-4 -22.924253,0.1524 -25.596605,0.38523 z m 18.39912,18.68784 a 7.9092454,7.9092454 0 0 1 -1.349016,1.73707 c -1.44723,1.41505 -3.430962,2.2922 -5.617893,2.2922 a 8.0382205,8.0382205 0 0 1 -5.629746,-2.29333 c -0.524367,-0.51364 -0.922863,-1.06285 -1.287775,-1.70236 l -0.0017,0.001 c -0.36463,0.64064 -0.872627,1.18956 -1.398123,1.70377 a 8.0433005,8.0433005 0 0 1 -5.629739,2.29166 c -0.263595,0 -0.537913,-0.0728 -0.759739,-0.14901 -0.308186,3.20942 -0.43829,6.2766 -0.484292,8.51292 l -5.64e-4,0.0127 c -0.0056,1.13565 -0.01129,2.06952 -0.01693,3.36689 0.05927,6.7338 -0.666888,21.82529 2.968966,25.53339 5.634261,1.31374 16.001934,1.91205 26.403192,1.91572 h 0.0017 c 10.400975,-0.004 20.76864,-0.60198 26.40291,-1.91572 3.63585,-3.70838 2.9097,-18.79987 2.96896,-25.53367 -0.006,-1.29709 -0.0113,-2.23096 -0.0169,-3.3669 l -8.5e-4,-0.0127 c -0.0457,-2.23688 -0.17582,-5.30378 -0.484,-8.51319 -0.22183,0.0762 -0.49587,0.14901 -0.75974,0.14901 a 8.0433005,8.0433005 0 0 1 -5.62976,-2.29164 c -0.52549,-0.5142 -1.03349,-1.06284 -1.3984,-1.70377 l -0.002,-0.001 c -0.3652,0.63952 -0.76341,1.189 -1.28778,1.70236 a 8.037656,8.037656 0 0 1 -5.62946,2.29305 c -2.186649,0 -4.170663,-0.87771 -5.617892,-2.29248 a 7.9092454,7.9092454 0 0 1 -1.349017,-1.73707 7.8993677,7.8993677 0 0 1 -1.336599,1.73707 8.0404782,8.0404782 0 0 1 -5.63031,2.29276 c -0.0762,0 -0.1524,-0.003 -0.228599,-0.006 h -0.002 c -0.0762,0.002 -0.152399,0.006 -0.229446,0.006 a 8.0404782,8.0404782 0 0 1 -5.63031,-2.29248 7.8999322,7.8999322 0 0 1 -1.336599,-1.73707 z m -5.78158,7.47603 -5.65e-4,0.003 h 0.0042 c 2.28966,0.005 4.323627,0 6.843861,2.75053 1.98345,-0.208 4.056082,-0.31186 6.130406,-0.30875 h 0.0017 c 2.074325,-0.003 4.146956,0.10075 6.130688,0.30875 2.520234,-2.75081 4.554201,-2.74601 6.843861,-2.75053 h 0.004 l -5.64e-4,-0.003 c 1.081753,0 5.409049,0 8.424294,8.46861 l 3.23877,11.61763 c 2.40001,8.64274 -0.76849,8.85412 -4.72071,8.86174 -5.861166,-0.21816 -9.106426,-4.47461 -9.106426,-8.73051 -3.244413,0.53171 -7.02928,0.79756 -10.814147,0.79784 h -0.0017 c -3.785149,0 -7.570016,-0.26613 -10.814147,-0.79784 0,4.2559 -3.245542,8.51235 -9.106427,8.73051 -3.952224,-0.008 -7.120438,-0.21872 -4.72043,-8.86174 l 3.239601,-11.61735 c 3.01525,-8.46861 7.342546,-8.46861 8.424299,-8.46861 z m 12.977935,6.65534 v 0.002 c -0.0056,0.006 -6.170199,5.667 -7.278481,7.68064 l 4.03689,-0.16171 v 3.52043 c 0,0.16481 1.619949,0.0976 3.241591,0.0226 h 0.0017 c 1.621078,0.0751 3.241309,0.14224 3.241309,-0.0226 v -3.52043 l 4.03689,0.16171 c -1.108565,-2.01364 -7.278482,-7.68064 -7.278482,-7.68064 v -0.002 l -8.46e-4,5.6e-4 z"
       color="#000000"
       id="path1775"
       style="fill:#fa5c5c;fill-opacity:1;stroke-width:0.282221" /></g></svg>
