<?xml version="1.0" encoding="UTF-8" standalone="no"?>
<!-- Created with Inkscape (http://www.inkscape.org/) -->

<svg
   width="3.175mm"
   height="3.175mm"
   viewBox="0 0 3.175 3.175"
   version="1.1"
   id="svg5"
   inkscape:version="1.2.1 (9c6d41e, 2022-07-14)"
   sodipodi:docname="logo.svg"
   xmlns:inkscape="http://www.inkscape.org/namespaces/inkscape"
   xmlns:sodipodi="http://sodipodi.sourceforge.net/DTD/sodipodi-0.dtd"
   xmlns="http://www.w3.org/2000/svg"
   xmlns:svg="http://www.w3.org/2000/svg">
  <sodipodi:namedview
     id="namedview7"
     pagecolor="#ffffff"
     bordercolor="#999999"
     borderopacity="1"
     inkscape:showpageshadow="0"
     inkscape:pageopacity="0"
     inkscape:pagecheckerboard="0"
     inkscape:deskcolor="#d1d1d1"
     inkscape:document-units="mm"
     showgrid="true"
     inkscape:zoom="12.660674"
     inkscape:cx="6.8321797"
     inkscape:cy="7.6220271"
     inkscape:window-width="1223"
     inkscape:window-height="783"
     inkscape:window-x="217"
     inkscape:window-y="25"
     inkscape:window-maximized="0"
     inkscape:current-layer="layer1">
    <inkscape:grid
       type="xygrid"
       id="grid3308"
       empspacing="4"
       originx="-1.0583333"
       originy="-1.0583333" />
  </sodipodi:namedview>
  <defs
     id="defs2" />
  <g
     inkscape:label="Layer 1"
     inkscape:groupmode="layer"
     id="layer1"
     transform="translate(-1.0583333,-1.0583333)">
    <path
       style="fill:#7886c7;fill-opacity:1;stroke:none;stroke-width:0.264583px;stroke-linecap:butt;stroke-linejoin:miter;stroke-opacity:1"
       d="m 1.3229166,1.0583333 c 0,0 -0.2645833,0 -0.2645833,0.2645833 0,0.2645834 0,2.6458334 0,2.6458334 0,0 0,0.2645833 0.2645833,0.2645833 0.2645834,0 0.5291667,0 0.5291667,0 0,0 0.2645833,0 0.2645833,-0.2645833 0,-0.2645834 0,-0.5291667 0,-0.5291667 0,0 0,-0.2645833 0.2645834,-0.2645833 0.2645833,0 0.5291666,0 0.5291666,0 0,0 0.2645834,0 0.2645834,0.2645833 0,0.2645833 0,0.5291667 0,0.5291667 0,0 0,0.2645833 0.2645833,0.2645833 0.2645833,0 0.5291667,0 0.5291667,0 0,0 0.2645833,0 0.2645833,-0.2645833 0,-0.2645834 0,-0.5291667 0,-0.5291667 0,0 0,-0.2645833 -0.2645833,-0.2645833 -0.2645834,0 -0.5291667,0 -0.5291667,0 0,0 -0.2645833,0 -0.2645833,-0.2645834 0,-0.2645833 0,-0.5291666 0,-0.5291666 0,0 0,-0.2645834 0.2645833,-0.2645834 0.2645833,0 0.5291667,0 0.5291667,0 0,0 0.2645833,0 0.2645833,-0.2645833 0,-0.2645833 0,-0.5291667 0,-0.5291667 0,0 0,-0.2645833 -0.2645833,-0.2645833 -0.2645834,0 -2.6458334,0 -2.6458334,0 z"
       id="path4462" />
  </g>
</svg>
